<svg width="20" height="26" viewBox="0 0 20 26" fill="none" xmlns="http://www.w3.org/2000/svg">
<path d="M17.875 3.375H15.25V2.5C15.25 2.03587 15.0656 1.59075 14.7374 1.26256C14.4092 0.934374 13.9641 0.75 13.5 0.75H6.5C6.03587 0.75 5.59075 0.934374 5.26256 1.26256C4.93437 1.59075 4.75 2.03587 4.75 2.5V3.375H2.125C1.66087 3.375 1.21575 3.55937 0.887563 3.88756C0.559374 4.21575 0.375 4.66087 0.375 5.125V23.5C0.375 23.9641 0.559374 24.4092 0.887563 24.7374C1.21575 25.0656 1.66087 25.25 2.125 25.25H17.875C18.3391 25.25 18.7842 25.0656 19.1124 24.7374C19.4406 24.4092 19.625 23.9641 19.625 23.5V5.125C19.625 4.66087 19.4406 4.21575 19.1124 3.88756C18.7842 3.55937 18.3391 3.375 17.875 3.375ZM6.5 2.5H13.5V6H6.5V2.5ZM17.875 23.5H2.125V5.125H4.75V7.75H15.25V5.125H17.875V23.5Z" fill="black"/>
</svg>
