<svg width="24" height="24" viewBox="0 0 24 24" fill="none" xmlns="http://www.w3.org/2000/svg">
<path d="M4.616 21C4.15533 21 3.771 20.846 3.463 20.538C3.155 20.23 3.00067 19.8457 3 19.385V10.615C3 10.155 3.15433 9.77101 3.463 9.46301C3.77167 9.15501 4.15567 9.00068 4.615 9.00001H19.385C19.845 9.00001 20.229 9.15435 20.537 9.46301C20.845 9.77168 20.9993 10.156 21 10.616V19.385C21 19.845 20.8457 20.2293 20.537 20.538C20.2283 20.8467 19.8443 21.0007 19.385 21H4.616ZM4.616 20H19.385C19.5383 20 19.6793 19.936 19.808 19.808C19.9367 19.68 20.0007 19.5387 20 19.384V10.616C20 10.462 19.936 10.3207 19.808 10.192C19.68 10.0633 19.539 9.99935 19.385 10H4.615C4.46167 10 4.32067 10.064 4.192 10.192C4.06333 10.32 3.99933 10.4613 4 10.616V19.385C4 19.5383 4.064 19.6793 4.192 19.808C4.32 19.9367 4.461 20.0007 4.615 20M11.121 17.648L14.606 15.328C14.73 15.2413 14.792 15.132 14.792 15C14.792 14.868 14.73 14.7583 14.606 14.671L11.121 12.352C10.9797 12.2613 10.841 12.252 10.705 12.324C10.5683 12.3967 10.5 12.5137 10.5 12.675V17.325C10.5 17.4863 10.5683 17.6033 10.705 17.676C10.8417 17.7487 10.9803 17.7393 11.121 17.648ZM5 7.23101C4.858 7.23101 4.739 7.18335 4.643 7.08801C4.547 6.99268 4.49933 6.87335 4.5 6.73001C4.50067 6.58668 4.54833 6.46768 4.643 6.37301C4.73767 6.27835 4.85667 6.23101 5 6.23101H19C19.1427 6.23101 19.2617 6.27868 19.357 6.37401C19.4523 6.46935 19.5 6.58835 19.5 6.73101C19.5 6.87368 19.4523 6.99268 19.357 7.08801C19.2617 7.18335 19.1427 7.23068 19 7.23001L5 7.23101ZM8 4.46101C7.858 4.46101 7.739 4.41335 7.643 4.31801C7.547 4.22268 7.49933 4.10401 7.5 3.96201C7.50067 3.82001 7.54833 3.70101 7.643 3.60501C7.73767 3.50901 7.85667 3.46135 8 3.46201H16C16.1427 3.46201 16.2617 3.50968 16.357 3.60501C16.4523 3.70035 16.5 3.81935 16.5 3.96201C16.5 4.10468 16.4523 4.22335 16.357 4.31801C16.2617 4.41268 16.1427 4.46068 16 4.46201L8 4.46101Z" fill="black"/>
</svg>
