<svg width="34" height="34" viewBox="0 0 34 34" fill="none" xmlns="http://www.w3.org/2000/svg">
<path d="M16.8283 0.105026C16.8535 0.105048 16.8787 0.10507 16.9047 0.105092C17.9128 0.106956 18.9076 0.19747 19.9006 0.373467C20.0497 0.399869 20.1975 0.422225 20.3486 0.433532C20.3486 0.448814 20.3486 0.464096 20.3486 0.479841C20.3782 0.481572 20.4079 0.483303 20.4384 0.485087C20.6284 0.504322 20.8115 0.556323 20.9959 0.604296C21.0254 0.611933 21.0254 0.611933 21.0556 0.619723C22.0865 0.886629 23.092 1.24381 24.0556 1.69746C24.1027 1.7196 24.1498 1.74163 24.197 1.76355C24.5335 1.91979 24.8584 2.0896 25.1792 2.27564C25.245 2.31345 25.3113 2.35003 25.3778 2.38646C26.1912 2.83424 26.9511 3.38961 27.6653 3.98133C27.7182 4.02515 27.7182 4.02515 27.7859 4.06879C27.7859 4.08408 27.7859 4.09936 27.7859 4.1151C27.798 4.12003 27.8101 4.12495 27.8225 4.13003C27.9021 4.17455 27.9666 4.2332 28.035 4.2931C28.0494 4.30561 28.0639 4.31812 28.0787 4.33101C28.1073 4.35582 28.1359 4.38068 28.1644 4.40558C28.1966 4.43369 28.229 4.46164 28.2614 4.48956C28.3458 4.5625 28.4253 4.6381 28.5042 4.71712C28.5283 4.74108 28.5524 4.76503 28.5765 4.78897C28.6481 4.86011 28.7196 4.93133 28.7911 5.00257C28.8218 5.0331 28.8525 5.06361 28.8832 5.0941C29.1862 5.39507 29.1862 5.39507 29.3042 5.534C29.366 5.60615 29.4322 5.67423 29.4976 5.74316C29.6287 5.88263 29.7519 6.02613 29.8712 6.17586C29.895 6.20504 29.9188 6.2342 29.9427 6.26332C30.2301 6.6142 30.5006 6.97637 30.7687 7.34213C30.9385 7.57377 31.1104 7.80351 31.2851 8.03155C31.4175 8.20476 31.5471 8.37994 31.6761 8.55571C31.7346 8.63553 31.7939 8.71478 31.8536 8.79377C31.9912 8.97636 32.1242 9.16241 32.2576 9.34803C32.2424 9.35567 32.2271 9.36331 32.2113 9.37118C32.219 9.38647 32.2266 9.40175 32.2345 9.41749C32.2354 9.46379 32.2355 9.51012 32.2345 9.55642C32.2192 9.55642 32.2039 9.55642 32.1881 9.55642C32.1537 9.48765 32.1537 9.48765 32.1186 9.41749C32.1033 9.41749 32.088 9.41749 32.0723 9.41749C32.0766 9.4323 32.0809 9.4471 32.0853 9.46236C32.0887 9.47812 32.092 9.49387 32.0955 9.51011C32.0878 9.51775 32.0802 9.52539 32.0723 9.53327C32.079 9.54556 32.0857 9.55786 32.0926 9.57053C32.1012 9.58689 32.1098 9.60324 32.1186 9.6201C32.1272 9.63621 32.1358 9.65233 32.1447 9.66894C32.165 9.7185 32.165 9.7185 32.165 9.81112C32.1879 9.81112 32.2108 9.81112 32.2345 9.81112C32.2378 9.83166 32.2412 9.85219 32.2446 9.87335C32.2556 9.9378 32.2676 10.0018 32.2808 10.0658C32.2961 10.0658 32.3114 10.0658 32.3272 10.0658C32.3367 10.0926 32.3463 10.1193 32.3561 10.1469C32.3813 10.2145 32.4095 10.2783 32.443 10.3422C32.4753 10.4049 32.5006 10.4661 32.5219 10.5333C32.5574 10.642 32.5979 10.7482 32.6399 10.8545C32.7243 11.069 32.8049 11.2847 32.8832 11.5014C32.8981 11.5423 32.8981 11.5423 32.9133 11.5841C32.9234 11.6122 32.9336 11.6403 32.944 11.6693C32.9581 11.7081 32.9581 11.7081 32.9725 11.7478C32.9996 11.8271 33.0229 11.9068 33.0454 11.9876C33.0526 12.0125 33.0597 12.0373 33.0671 12.0629C33.1057 12.1989 33.1425 12.3353 33.1795 12.4717C33.2043 12.5627 33.2291 12.6535 33.2553 12.7441C33.2852 12.85 33.3111 12.9569 33.3371 13.0638C33.3584 13.1532 33.3584 13.1532 33.3929 13.238C33.4009 13.2803 33.408 13.3228 33.4147 13.3653C33.4516 13.5995 33.4516 13.5995 33.5117 13.8284C33.5381 13.9338 33.5359 14.033 33.532 14.141C33.5549 14.1525 33.5549 14.1525 33.5783 14.1642C33.5783 14.2329 33.5783 14.3017 33.5783 14.3726C33.5936 14.3726 33.6089 14.3726 33.6246 14.3726C33.624 14.3972 33.6233 14.4219 33.6226 14.4473C33.6226 14.5809 33.6408 14.712 33.6579 14.8443C33.6611 14.8696 33.6642 14.8949 33.6674 14.9209C33.6789 15.0442 33.6789 15.0442 33.7173 15.1598C33.7168 15.1789 33.7164 15.198 33.7159 15.2177C33.7108 15.2797 33.7108 15.2797 33.7637 15.3219C33.756 15.3295 33.7484 15.3372 33.7405 15.3451C33.7398 15.3827 33.7408 15.4205 33.7425 15.4581C33.7435 15.4813 33.7445 15.5046 33.7456 15.5285C33.7467 15.553 33.7479 15.5774 33.7492 15.6027C33.7502 15.6266 33.7512 15.6505 33.7523 15.6752C33.7565 15.7687 33.7609 15.8602 33.7754 15.9528C33.7864 16.0367 33.7898 16.1162 33.7898 16.2008C33.7899 16.216 33.7899 16.2312 33.7899 16.2468C33.79 16.2965 33.79 16.3462 33.7899 16.3959C33.7899 16.4307 33.7899 16.4655 33.79 16.5002C33.79 16.5729 33.79 16.6456 33.7898 16.7183C33.7897 16.8112 33.7898 16.9042 33.7899 16.9972C33.79 17.069 33.79 17.1407 33.7899 17.2125C33.7899 17.2467 33.7899 17.281 33.79 17.3153C33.79 17.3632 33.79 17.4112 33.7898 17.4591C33.7898 17.4999 33.7898 17.4999 33.7898 17.5416C33.7868 17.6142 33.7868 17.6142 33.7736 17.6774C33.7586 17.7335 33.7586 17.7335 33.7868 17.7994C33.7854 17.8458 33.7823 17.8922 33.7781 17.9384C33.776 17.9627 33.774 17.9871 33.7718 18.0122C33.7637 18.0773 33.7637 18.0773 33.7405 18.1468C33.7481 18.162 33.7558 18.1773 33.7637 18.1931C33.768 18.2554 33.7656 18.3157 33.7637 18.3783C33.756 18.3859 33.7484 18.3936 33.7405 18.4015C33.7394 18.44 33.7396 18.4786 33.7405 18.5172C33.7414 18.5558 33.7416 18.5944 33.7405 18.633C33.7328 18.6406 33.7252 18.6483 33.7173 18.6562C33.7119 18.6898 33.7077 18.7236 33.7043 18.7575C33.7014 18.7849 33.7014 18.7849 33.6984 18.813C33.6932 18.8675 33.6932 18.8675 33.6941 18.934C33.6839 19.0215 33.6693 19.1053 33.6464 19.1902C33.6256 19.2684 33.6227 19.3391 33.6246 19.4203C33.617 19.4279 33.6093 19.4355 33.6015 19.4434C33.6015 19.4625 33.6015 19.4816 33.6015 19.5013C33.6015 19.5204 33.6015 19.5395 33.6015 19.5592C33.5938 19.5668 33.5862 19.5745 33.5783 19.5823C33.5745 19.6213 33.5718 19.6604 33.5696 19.6996C33.5562 19.8796 33.5213 20.054 33.4856 20.2307C33.4818 20.25 33.478 20.2693 33.4741 20.2892C33.4532 20.3921 33.43 20.4945 33.4073 20.597C33.3907 20.6695 33.3907 20.6695 33.3929 20.7401C33.3838 20.776 33.3735 20.8117 33.3625 20.8472C33.3562 20.8678 33.3499 20.8883 33.3433 20.9096C33.3255 20.9653 33.3065 21.0205 33.2872 21.0758C33.2556 21.169 33.2353 21.2624 33.2175 21.3592C33.1977 21.4634 33.1672 21.5643 33.1381 21.6662C33.1345 21.6811 33.1309 21.696 33.1271 21.7114C33.1142 21.7615 33.0984 21.8098 33.0816 21.8587C33.0514 21.9482 33.0248 22.0384 32.9991 22.1293C32.9595 22.2552 32.9595 22.2552 32.93 22.3117C32.9045 22.3648 32.8903 22.4151 32.876 22.4723C32.7822 22.8264 32.6537 23.1736 32.4864 23.4998C32.4488 23.5739 32.422 23.6478 32.3967 23.727C32.3736 23.7811 32.3504 23.8351 32.3272 23.8891C32.3164 23.919 32.3058 23.9489 32.2953 23.9788C32.2619 24.0711 32.2144 24.1516 32.1624 24.2346C32.1377 24.2922 32.1436 24.3176 32.165 24.3753C32.142 24.3753 32.1191 24.3753 32.0955 24.3753C32.0897 24.3916 32.084 24.4078 32.0781 24.4245C32.0491 24.4911 32.0491 24.4911 32.0042 24.5577C31.9629 24.6203 31.9344 24.6798 31.9056 24.7486C31.8277 24.93 31.7326 25.106 31.635 25.2774C31.6075 25.3271 31.5828 25.3777 31.5582 25.4289C31.5162 25.5099 31.5162 25.5099 31.4699 25.5331C31.4622 25.556 31.4546 25.5789 31.4467 25.6025C31.4391 25.5872 31.4314 25.572 31.4235 25.5562C31.4083 25.5562 31.393 25.5562 31.3772 25.5562C31.3825 25.5729 31.3877 25.5896 31.3931 25.6069C31.4025 25.6914 31.379 25.719 31.3309 25.7878C31.3194 25.8083 31.3079 25.8288 31.2961 25.85C31.2614 25.9035 31.2614 25.9035 31.1919 25.9498C31.2071 25.9575 31.2224 25.9651 31.2382 25.973C31.2239 25.9917 31.2097 26.0104 31.195 26.0297C31.1761 26.0547 31.1572 26.0797 31.1383 26.1047C31.1289 26.117 31.1195 26.1292 31.1099 26.1419C31.0674 26.1982 31.0276 26.2543 30.9913 26.3148C30.9602 26.3666 30.9602 26.3666 30.9095 26.4158C30.8594 26.4575 30.8594 26.4575 30.8675 26.5287C30.8394 26.5636 30.8112 26.5984 30.7816 26.632C30.7484 26.6696 30.7484 26.6696 30.7169 26.7255C30.6736 26.7975 30.62 26.8579 30.5663 26.9223C30.5543 26.9424 30.5424 26.9624 30.5301 26.9831C30.4943 27.0422 30.4544 27.0836 30.4041 27.1307C30.3907 27.1441 30.3773 27.1575 30.3635 27.1712C30.354 27.1808 30.3444 27.1903 30.3346 27.2002C30.3269 27.1925 30.3193 27.1849 30.3114 27.177C30.309 27.1937 30.3066 27.2105 30.3042 27.2277C30.2791 27.3302 30.2255 27.4019 30.1579 27.4809C30.0997 27.5433 30.0997 27.5433 30.0797 27.617C30.0416 27.6561 30.0029 27.6946 29.9639 27.7327C29.9486 27.7518 29.9333 27.7709 29.9175 27.7906C29.8712 27.8485 29.8712 27.8485 29.8185 27.9005C29.7501 27.9696 29.6876 28.0419 29.625 28.1162C29.4447 28.3281 29.2585 28.5326 29.06 28.7278C29.0181 28.7704 28.9796 28.8141 28.9415 28.8601C28.8836 28.9295 28.82 28.987 28.7501 29.0442C28.6781 29.1049 28.6364 29.1428 28.62 29.2378C28.6012 29.2398 28.6012 29.2398 28.582 29.2419C28.5035 29.2692 28.4529 29.3231 28.3941 29.3796C28.3692 29.4031 28.3442 29.4265 28.3192 29.45C28.3072 29.4613 28.2951 29.4727 28.2827 29.4845C28.2416 29.5229 28.1993 29.5599 28.1567 29.5967C28.0899 29.6544 28.0249 29.7138 27.9603 29.7738C27.8528 29.8736 27.7447 29.9649 27.6238 30.0482C27.6161 30.0635 27.6085 30.0788 27.6006 30.0945C27.5853 30.0945 27.57 30.0945 27.5543 30.0945C27.5466 30.1098 27.539 30.1251 27.5311 30.1408C27.5033 30.1634 27.4747 30.185 27.4456 30.2059C27.3854 30.25 27.327 30.2947 27.2704 30.3434C27.2175 30.3867 27.1741 30.4118 27.114 30.4418C27.0997 30.4561 27.0854 30.4705 27.0706 30.4852C27.0128 30.543 26.9508 30.5824 26.8823 30.6271C26.8352 30.6632 26.7883 30.6997 26.7417 30.7366C26.6812 30.7763 26.6299 30.7891 26.558 30.7891C26.5518 30.803 26.5457 30.8168 26.5393 30.8311C26.4686 30.9605 26.3398 31.0286 26.2102 31.0885C26.1123 31.1411 26.0337 31.2205 25.9556 31.2985C25.9262 31.3071 25.9262 31.3071 25.8962 31.3159C25.8055 31.3489 25.7364 31.3953 25.6578 31.4505C25.608 31.4838 25.608 31.4838 25.5568 31.5084C25.5112 31.5271 25.5112 31.5271 25.4922 31.5764C25.4716 31.5831 25.4511 31.5898 25.4299 31.5966C25.3467 31.6249 25.2867 31.6664 25.2141 31.7153C25.1591 31.7327 25.1591 31.7327 25.1215 31.7385C25.1215 31.7232 25.1215 31.7079 25.1215 31.6922C25.1062 31.6922 25.0909 31.6922 25.0751 31.6922C25.0828 31.7151 25.0904 31.738 25.0983 31.7616C25.0694 31.7806 25.0405 31.7994 25.0114 31.8181C24.9953 31.8285 24.9792 31.839 24.9625 31.8498C24.9145 31.8766 24.8736 31.8886 24.8203 31.9006C24.8126 31.9082 24.805 31.9158 24.7971 31.9237C24.7662 31.9546 24.7353 31.9855 24.7044 32.0163C24.6968 32.001 24.6891 31.9858 24.6812 31.97C24.665 31.9838 24.6488 31.9975 24.6321 32.0117C24.5653 32.0627 24.5003 32.0994 24.4249 32.1364C24.4013 32.1482 24.3776 32.16 24.3532 32.1722C24.299 32.1964 24.2519 32.2114 24.1947 32.2247C24.152 32.2457 24.1093 32.2667 24.0669 32.2882C23.9963 32.3239 23.9256 32.3594 23.8544 32.394C23.8295 32.4064 23.8045 32.4187 23.7788 32.4314C23.7031 32.458 23.6677 32.457 23.5923 32.4331C23.5923 32.456 23.5923 32.479 23.5923 32.5026C23.5698 32.5121 23.5474 32.5217 23.5242 32.5315C23.4569 32.5603 23.3898 32.5899 23.3229 32.6198C23.2511 32.6518 23.1789 32.6821 23.1057 32.711C23.0818 32.7219 23.0579 32.7329 23.0333 32.7442C22.9389 32.7854 22.8406 32.8096 22.741 32.8349C22.6898 32.845 22.6898 32.845 22.6655 32.873C22.596 32.9194 22.596 32.9194 22.5497 32.9194C22.5031 32.9341 22.4568 32.9497 22.4106 32.9657C22.3759 32.9773 22.3411 32.9888 22.3064 33.0004C22.2899 33.0059 22.2734 33.0114 22.2564 33.017C22.2159 33.0305 22.1755 33.044 22.135 33.0575C22.0873 33.0734 22.0396 33.0894 21.992 33.1054C21.9686 33.1133 21.9453 33.1211 21.9212 33.1292C21.8977 33.1371 21.8742 33.145 21.8501 33.1532C21.7397 33.1886 21.6289 33.2093 21.5149 33.2297C21.455 33.2418 21.455 33.2418 21.3912 33.2898C21.3443 33.2981 21.2982 33.3014 21.2507 33.305C21.1985 33.3112 21.1985 33.3112 21.1363 33.3593C21.1287 33.3516 21.121 33.344 21.1132 33.3361C21.0998 33.3433 21.0864 33.3505 21.0726 33.3578C21.0231 33.3812 20.9809 33.393 20.9278 33.4056C20.9061 33.4111 20.8844 33.4166 20.862 33.4222C20.8265 33.4312 20.8265 33.4312 20.7902 33.4403C20.7666 33.4463 20.743 33.4523 20.7186 33.4584C20.6573 33.4733 20.5959 33.4861 20.5339 33.4982C20.5011 33.5059 20.4683 33.5136 20.4355 33.5214C20.3625 33.5379 20.2913 33.5491 20.2168 33.5561C20.155 33.562 20.1096 33.5702 20.0503 33.5908C19.9432 33.6251 19.8347 33.6296 19.723 33.6371C19.723 33.6448 19.723 33.6524 19.723 33.6603C19.7024 33.6598 19.6819 33.6593 19.6607 33.6589C19.5442 33.6567 19.5442 33.6567 19.445 33.7066C19.3909 33.7066 19.3368 33.7066 19.2828 33.7066C19.2751 33.7142 19.2675 33.7219 19.2596 33.7298C19.1714 33.7455 19.0821 33.755 18.9932 33.7659C18.9685 33.7691 18.9438 33.7724 18.9184 33.7757C18.776 33.7934 18.6385 33.8027 18.495 33.7992C18.4874 33.8145 18.4797 33.8298 18.4718 33.8455C18.4545 33.8453 18.4372 33.845 18.4194 33.8447C18.3965 33.8445 18.3737 33.8443 18.3502 33.8441C18.3276 33.8438 18.305 33.8435 18.2818 33.8433C18.2206 33.8427 18.2206 33.8427 18.1782 33.8572C18.0987 33.8742 18.0196 33.871 17.9387 33.8701C17.9209 33.87 17.9031 33.87 17.8847 33.8699C17.828 33.8696 17.7712 33.8692 17.7145 33.8687C17.6396 33.8681 17.5647 33.8676 17.4898 33.8672C17.4638 33.867 17.4638 33.867 17.4373 33.8667C17.396 33.8665 17.3547 33.8675 17.3134 33.8687C17.3057 33.8763 17.2981 33.884 17.2902 33.8918C17.2359 33.8942 17.1823 33.8951 17.128 33.8949C17.1116 33.8949 17.0951 33.895 17.0782 33.895C17.0432 33.895 17.0082 33.895 16.9732 33.8949C16.9204 33.8947 16.8675 33.8949 16.8146 33.895C16.647 33.8951 16.4835 33.8896 16.3171 33.8687C16.2582 33.8677 16.1993 33.8677 16.1404 33.8687C15.8147 33.8713 15.4843 33.8685 15.1629 33.8118C15.0705 33.7961 14.9779 33.7843 14.8849 33.7732C14.8689 33.7711 14.8528 33.7691 14.8362 33.767C14.7553 33.7574 14.6766 33.7521 14.5951 33.753C14.5079 33.7529 14.4521 33.736 14.3709 33.7066C14.3168 33.6986 14.2628 33.6909 14.2087 33.6835C14.201 33.6758 14.1934 33.6682 14.1855 33.6603C14.1547 33.6565 14.1238 33.6538 14.0928 33.6516C13.8475 33.629 13.605 33.5791 13.3648 33.5254C13.3469 33.5215 13.3291 33.5175 13.3107 33.5134C13.1308 33.4729 12.9517 33.4291 12.7729 33.3841C12.7197 33.3708 12.6666 33.3576 12.6134 33.3444C12.2773 33.2605 11.9459 33.1637 11.6153 33.0602C11.5947 33.0538 11.5741 33.0475 11.5529 33.0409C11.5349 33.0353 11.5169 33.0297 11.4984 33.0239C11.4484 33.0091 11.4484 33.0091 11.382 33.012C11.3744 32.9967 11.3667 32.9814 11.3588 32.9657C11.31 32.947 11.31 32.947 11.2517 32.9324C11.1685 32.9088 11.0904 32.8823 11.0113 32.8468C10.9516 32.8209 10.891 32.7979 10.8303 32.7746C10.8044 32.7647 10.7785 32.7548 10.7518 32.7446C10.7057 32.727 10.6595 32.7094 10.6134 32.6917C10.4204 32.618 10.2285 32.5443 10.042 32.455C9.99454 32.4343 9.94968 32.4208 9.89916 32.41C9.89916 32.3947 9.89916 32.3794 9.89916 32.3636C9.86858 32.3636 9.838 32.3636 9.80649 32.3636C9.80649 32.3484 9.80649 32.3331 9.80649 32.3173C9.78976 32.3145 9.77304 32.3116 9.7558 32.3087C9.69163 32.2944 9.6351 32.2737 9.57479 32.2479C9.57479 32.2326 9.57479 32.2173 9.57479 32.2016C9.54899 32.203 9.54899 32.203 9.52266 32.2045C9.4377 32.2006 9.39116 32.1741 9.32427 32.1234C9.19505 32.0262 9.19505 32.0262 9.0419 31.9932C9.03425 31.9779 9.0266 31.9626 9.01873 31.9469C8.99579 31.9392 8.97285 31.9316 8.94922 31.9237C8.92628 31.9161 8.90334 31.9084 8.87971 31.9006C8.87206 31.8853 8.86442 31.87 8.85654 31.8542C8.83074 31.8471 8.80493 31.8399 8.77834 31.8325C8.69386 31.8078 8.6814 31.7973 8.62485 31.7385C8.57175 31.7121 8.51786 31.6909 8.46266 31.669C8.46266 31.6537 8.46266 31.6384 8.46266 31.6227C8.44841 31.6185 8.43417 31.6143 8.41949 31.6099C8.40076 31.6041 8.38204 31.5983 8.36274 31.5923C8.33492 31.5838 8.33492 31.5838 8.30654 31.5752C8.25115 31.552 8.22558 31.5265 8.18463 31.4838C8.16169 31.4761 8.13875 31.4685 8.11512 31.4606C8.04307 31.4366 8.02663 31.4205 7.9761 31.368C7.92308 31.3349 7.86878 31.3054 7.81392 31.2754C7.81392 31.2601 7.81392 31.2448 7.81392 31.2291C7.7895 31.2204 7.7895 31.2204 7.76459 31.2116C7.68957 31.1791 7.62775 31.138 7.5605 31.0916C7.46976 31.029 7.37963 30.9771 7.28102 30.9281C7.24964 30.8977 7.21876 30.8668 7.18834 30.8354C7.14255 30.8038 7.09631 30.7727 7.04933 30.7428C7.03403 30.7581 7.01874 30.7734 7.00299 30.7891C6.9963 30.7696 6.98961 30.75 6.98271 30.7298C6.92633 30.6149 6.80845 30.5518 6.70179 30.4881C6.67885 30.4805 6.65591 30.4728 6.63228 30.465C6.63992 30.4497 6.64757 30.4344 6.65545 30.4187C6.64314 30.4132 6.63084 30.4078 6.61816 30.4022C6.54614 30.3634 6.48274 30.3148 6.41796 30.2653C6.40512 30.2555 6.39227 30.2458 6.37904 30.2358C6.34756 30.2119 6.31614 30.1879 6.28474 30.164C6.27709 30.1792 6.26944 30.1945 6.26157 30.2103C6.24627 30.195 6.23098 30.1797 6.21523 30.164C6.21523 30.1334 6.21523 30.1028 6.21523 30.0713C6.20316 30.0664 6.1911 30.0614 6.17866 30.0563C6.09938 30.0121 6.03461 29.954 5.96616 29.8948C5.95221 29.8829 5.93826 29.8709 5.92389 29.8586C5.88964 29.8293 5.85548 29.7998 5.82135 29.7703C5.80606 29.7933 5.79076 29.8162 5.77501 29.8398C5.74025 29.808 5.74025 29.808 5.7055 29.7703C5.7055 29.7551 5.7055 29.7398 5.7055 29.724C5.684 29.7147 5.684 29.7147 5.66206 29.7052C5.61282 29.6777 5.61282 29.6777 5.56648 29.6083C5.55263 29.613 5.53877 29.6178 5.52449 29.6227C5.47381 29.6314 5.47381 29.6314 5.4043 29.5851C5.4043 29.5698 5.4043 29.5545 5.4043 29.5388C5.38901 29.5388 5.37371 29.5388 5.35796 29.5388C5.35796 29.5235 5.35796 29.5082 5.35796 29.4925C5.34267 29.5001 5.32738 29.5078 5.31162 29.5156C5.31927 29.5309 5.32691 29.5462 5.33479 29.5619C5.33572 29.6082 5.3358 29.6546 5.33479 29.7009C5.2295 29.603 5.14797 29.4931 5.064 29.3767C5.03512 29.3371 5.00622 29.2975 4.97729 29.2579C4.9632 29.2387 4.94911 29.2194 4.9346 29.1995C4.88124 29.1271 4.82665 29.0556 4.77148 28.9845C4.66428 28.8462 4.55912 28.7065 4.45435 28.5663C4.30088 28.361 4.14653 28.1564 3.99096 27.9527C3.8577 27.7782 3.72512 27.6032 3.59365 27.4273C3.54936 27.3681 3.50482 27.3091 3.46006 27.2502C2.96236 26.5944 2.51375 25.9054 2.11424 25.1857C2.10105 25.162 2.08786 25.1383 2.07426 25.1139C1.12214 23.3944 0.484262 21.5091 0.00111976 17.4774C0.000957006 17.4431 0.000793163 17.4088 0.000627641 17.3745C0.000178044 17.2653 6.11484e-05 17.1561 3.36982e-05 17.0469C2.34606e-05 17.0283 1.31348e-05 17.0097 2.58697e-06 16.9905C-0.000165121 16.4087 0.00764435 15.831 0.0753343 15.2524C0.0784472 15.2256 0.0784472 15.2256 0.081623 15.1982C0.111166 14.9459 0.145535 14.6944 0.18391 14.4433C0.190806 14.3982 0.197592 14.353 0.204372 14.3079C0.497787 12.3852 1.1527 10.4417 2.16946 8.69465C2.20689 8.63029 2.2435 8.56553 2.27996 8.50063C2.59572 7.94293 2.95686 7.4057 3.34222 6.89365C3.35258 6.87985 3.36295 6.86605 3.37363 6.85183C3.50549 6.67692 3.64282 6.5067 3.78244 6.33794C3.81771 6.29503 3.85294 6.2521 3.88815 6.20914C3.90517 6.18843 3.9222 6.16771 3.93974 6.14637C3.97479 6.10317 4.00941 6.05962 4.04364 6.01577C4.06018 5.99457 4.07673 5.97338 4.09378 5.95155C4.10856 5.93236 4.12335 5.91316 4.13858 5.89339C4.15103 5.87963 4.16349 5.86587 4.17632 5.85169C4.19161 5.85169 4.2069 5.85169 4.22266 5.85169C4.22895 5.83796 4.23524 5.82423 4.24172 5.81009C4.26852 5.75998 4.2959 5.72504 4.3347 5.68382C4.34777 5.66987 4.36084 5.65591 4.37431 5.64153C4.3883 5.62683 4.40229 5.61214 4.4167 5.59699C4.4311 5.58173 4.44549 5.56647 4.46032 5.55074C4.59461 5.40901 4.73237 5.27098 4.8714 5.1339C4.94835 5.05722 5.02485 4.9801 5.1011 4.90272C5.13399 4.86954 5.16687 4.83636 5.19977 4.80321C5.222 4.78076 5.24419 4.75827 5.26633 4.73573C5.40296 4.59679 5.54306 4.46655 5.6963 4.34581C5.75288 4.30123 5.75288 4.30123 5.80258 4.24817C5.84452 4.20772 5.84452 4.20772 5.89086 4.20772C5.89086 4.19244 5.89086 4.17716 5.89086 4.16141C5.92851 4.12695 5.92851 4.12695 5.98353 4.08471C6.00474 4.06821 6.02594 4.0517 6.04779 4.0347C6.0597 4.02544 6.07161 4.01618 6.08388 4.00665C6.14079 3.9618 6.19663 3.91569 6.2526 3.8697C7.74725 2.64372 9.47185 1.70759 11.2893 1.0587C11.3046 1.05323 11.3199 1.04775 11.3357 1.04211C12.0225 0.796579 12.7308 0.608201 13.4441 0.456686C13.4666 0.45184 13.4891 0.446993 13.5123 0.442C14.144 0.307748 14.7892 0.218092 15.4323 0.160019C15.4609 0.157433 15.4895 0.154847 15.519 0.152184C15.955 0.115658 16.3909 0.104534 16.8283 0.105026ZM15.2947 1.42194C15.2764 1.42388 15.258 1.42582 15.2391 1.42783C14.7062 1.48473 14.1746 1.56932 13.6518 1.68713C13.5832 1.70258 13.5145 1.71482 13.4452 1.72648C13.2671 1.75849 13.093 1.8059 12.9184 1.85319C12.9 1.85818 12.8816 1.86316 12.8626 1.86829C12.1511 2.06182 11.4563 2.29391 10.7796 2.5869C10.7651 2.59317 10.7506 2.59943 10.7356 2.60588C9.87979 2.97551 9.04868 3.4045 8.27731 3.92987C8.25088 3.94731 8.22442 3.9647 8.19793 3.98206C7.59748 4.37605 7.01326 4.81392 6.48883 5.3053C6.43788 5.35239 6.38641 5.39828 6.33406 5.44378C6.10444 5.64376 5.88504 5.85545 5.6693 6.07022C5.65442 6.08497 5.63955 6.09973 5.62423 6.11494C5.53676 6.20263 5.4538 6.2931 5.37281 6.38679C5.31889 6.44887 5.26318 6.50911 5.20736 6.56949C4.91565 6.88673 4.64299 7.22003 4.38484 7.56513C4.37437 7.5791 4.36389 7.59308 4.3531 7.60747C3.98784 8.09736 3.6473 8.61026 3.34222 9.13964C3.33352 9.15454 3.32482 9.16945 3.31585 9.18481C3.02341 9.68609 2.76792 10.2078 2.53129 10.7373C2.52365 10.7543 2.51601 10.7714 2.50814 10.7889C2.4211 10.984 2.34487 11.1827 2.27133 11.3831C2.25341 11.4315 2.23506 11.4798 2.2166 11.528C1.98394 12.1399 1.80371 12.7641 1.65085 13.4001C1.64709 13.4156 1.64333 13.4311 1.63945 13.4471C1.50982 13.9825 1.42321 14.5216 1.34965 15.0672C1.34374 15.111 1.34374 15.111 1.33771 15.1557C1.3152 15.3266 1.29644 15.4976 1.28014 15.6692C1.27776 15.6929 1.27537 15.7166 1.27291 15.7409C1.17517 16.7471 1.21625 17.769 1.32648 18.7719C1.32917 18.7969 1.32917 18.7969 1.33191 18.8223C1.4186 19.6225 1.56454 20.4584 1.8134 21.2249C1.83546 21.2934 1.85571 21.3624 1.87557 21.4317C2.08357 22.1537 2.35455 22.8602 2.67031 23.5418C2.68138 23.5657 2.69245 23.5897 2.70386 23.6143C2.86488 23.9604 3.03933 24.2973 3.22637 24.63C3.2376 24.6502 3.24882 24.6704 3.26038 24.6911C3.511 25.1412 3.78576 25.5758 4.08364 25.9961C4.09556 26.013 4.10747 26.0298 4.11974 26.0471C4.28674 26.2823 4.45861 26.5126 4.63971 26.7371C4.65727 26.7589 4.67483 26.7807 4.69292 26.8031C4.74433 26.8663 4.79614 26.9291 4.84823 26.9918C4.85802 27.0036 4.86781 27.0154 4.8779 27.0275C5.01298 27.1897 5.1515 27.3478 5.29533 27.5024C5.34194 27.5526 5.38689 27.6041 5.43161 27.656C5.51795 27.7547 5.6089 27.8479 5.70179 27.9405C5.71861 27.9573 5.73542 27.9741 5.75275 27.9915C5.78806 28.0268 5.8234 28.0621 5.85877 28.0973C5.91243 28.1508 5.96598 28.2045 6.01951 28.2581C6.05406 28.2926 6.08862 28.3271 6.12318 28.3616C6.13895 28.3774 6.15472 28.3932 6.17096 28.4095C6.26201 28.5001 6.35543 28.5865 6.45279 28.6703C6.50897 28.7188 6.5633 28.7692 6.6178 28.8196C6.73458 28.9259 6.85531 29.0249 6.97982 29.122C7.00517 29.142 7.03051 29.162 7.05584 29.182C7.13843 29.2471 7.22127 29.312 7.30419 29.3767C7.31695 29.3867 7.32972 29.3967 7.34287 29.4069C8.53445 30.337 9.8874 31.0966 11.3041 31.6253C11.3533 31.6438 11.4022 31.6627 11.451 31.6819C12.7378 32.1815 14.1131 32.4551 15.483 32.5906C15.5257 32.5948 15.5684 32.5992 15.6111 32.6036C17.38 32.7785 19.1888 32.5726 20.9046 32.1321C20.9245 32.127 20.9444 32.122 20.9649 32.1168C21.1377 32.075 21.1377 32.075 21.3056 32.0177C21.3708 31.9921 21.4362 31.9716 21.5033 31.9516C21.6801 31.8978 21.8551 31.8391 22.0298 31.779C22.046 31.7734 22.0623 31.7678 22.079 31.7621C22.3475 31.6696 22.6125 31.5714 22.874 31.4606C22.8944 31.4521 22.9147 31.4435 22.9357 31.4347C24.4238 30.8075 25.8328 29.9656 27.0511 28.9018C27.0929 28.8655 27.135 28.8297 27.1773 28.794C27.3637 28.6362 27.3637 28.6362 27.5387 28.4661C27.577 28.4278 27.6167 28.3931 27.658 28.3581C27.7751 28.2563 27.8849 28.1476 27.9945 28.038C28.0297 28.0029 28.065 27.968 28.1004 27.9331C28.1228 27.9108 28.1451 27.8885 28.1675 27.8661C28.1978 27.836 28.1978 27.836 28.2287 27.8053C28.2776 27.7611 28.2776 27.7611 28.2725 27.7096C28.2878 27.7096 28.3031 27.7096 28.3188 27.7096C28.3529 27.6769 28.3529 27.6769 28.3884 27.6329C28.4553 27.5541 28.5238 27.4773 28.594 27.4013C28.6886 27.2976 28.7785 27.1911 28.8667 27.0819C28.9273 27.0075 28.9893 26.9345 29.0516 26.8615C29.2474 26.6308 29.4247 26.3886 29.6008 26.1427C29.6369 26.0924 29.6731 26.0423 29.7094 25.9922C30.2592 25.2279 30.7508 24.3918 31.1217 23.5261C31.1503 23.4615 31.1805 23.3977 31.2107 23.3338C31.2942 23.1538 31.3662 22.9698 31.438 22.7849C31.4576 22.7349 31.4771 22.685 31.4967 22.635C31.5092 22.6029 31.5218 22.5707 31.5343 22.5385C31.5679 22.4524 31.6021 22.3665 31.637 22.2808C31.7127 22.092 31.7696 21.8977 31.8261 21.7024C31.8367 21.6659 31.8367 21.6659 31.8475 21.6286C32.2941 20.0866 32.5412 18.5517 32.5415 16.9442C32.5415 16.9279 32.5415 16.9115 32.5415 16.8947C32.5415 16.0256 32.4651 15.1843 32.3272 14.3263C32.3227 14.2983 32.3182 14.2702 32.3136 14.2414C32.1688 13.3609 31.9243 12.474 31.6039 11.6415C31.5865 11.596 31.5696 11.5503 31.553 11.5045C31.4498 11.2218 31.3329 10.9447 31.215 10.6678C31.2068 10.6485 31.1986 10.6292 31.1902 10.6093C31.0819 10.3554 30.9593 10.1114 30.8285 9.86837C30.7975 9.81024 30.7672 9.75178 30.7372 9.69318C30.5198 9.27057 30.2793 8.86306 30.0169 8.46689C29.9878 8.42304 29.959 8.37905 29.9303 8.33502C29.6332 7.88221 29.3105 7.44251 28.957 7.03203C28.9018 6.96751 28.8484 6.90194 28.7953 6.83576C28.6859 6.70148 28.5685 6.57556 28.4501 6.4493C28.4225 6.41933 28.3953 6.38902 28.3683 6.3585C28.2217 6.1929 28.067 6.03639 27.9104 5.88041C27.8655 5.83569 27.8208 5.79086 27.776 5.74601C27.6365 5.60647 27.4964 5.46989 27.3457 5.34229C27.3046 5.30479 27.2635 5.26718 27.2226 5.22942C27.0975 5.11547 26.9678 5.00852 26.836 4.90236C26.8061 4.8779 26.7763 4.85342 26.7465 4.82891C26.5716 4.68543 26.3949 4.54717 26.2104 4.41611C26.1792 4.39336 26.148 4.37056 26.1168 4.34773C25.6221 3.98652 25.1091 3.6501 24.5712 3.35639C24.5122 3.32408 24.4534 3.2914 24.3945 3.25875C23.8933 2.98225 23.3806 2.73538 22.8494 2.52191C22.7823 2.49466 22.7156 2.46658 22.6489 2.4383C22.3545 2.31499 22.0561 2.21228 21.7518 2.11658C21.7335 2.11082 21.7152 2.10505 21.6963 2.09912C20.7873 1.81414 19.8585 1.59088 18.9121 1.47549C18.886 1.47227 18.8599 1.46905 18.8331 1.46574C18.6434 1.44278 18.4536 1.42333 18.2633 1.40602C18.237 1.40357 18.2107 1.40112 18.1836 1.39859C17.7421 1.35937 17.3016 1.35547 16.8587 1.35537C16.8173 1.35534 16.8173 1.35534 16.775 1.3553C16.2796 1.35535 15.7875 1.36888 15.2947 1.42194Z" fill="#DEDCD0"/>
<path d="M16.9189 1.27986C16.9616 1.27987 16.9616 1.27987 17.0052 1.27988C17.4465 1.28033 17.8839 1.28955 18.3236 1.33051C18.3508 1.33299 18.3781 1.33547 18.4062 1.33803C18.5953 1.35569 18.7838 1.37681 18.9723 1.39997C18.9976 1.40301 19.0228 1.40604 19.0489 1.40917C19.94 1.51838 20.8188 1.72537 21.6727 1.99948C21.7232 2.01569 21.7737 2.03179 21.8243 2.04774C22.9837 2.41346 24.1001 2.9356 25.1339 3.57361C25.1469 3.58164 25.16 3.58966 25.1734 3.59794C25.38 3.72539 25.5845 3.85509 25.7841 3.99328C25.7998 4.00413 25.8155 4.01498 25.8317 4.02616C26.0394 4.16995 26.2433 4.31754 26.4419 4.47349C26.4809 4.50405 26.5201 4.5344 26.5593 4.56473C26.8923 4.82331 27.2088 5.10025 27.5218 5.38256C27.5373 5.39617 27.5529 5.40979 27.5689 5.42382C27.7352 5.57085 27.8924 5.72623 28.0491 5.88338C28.0939 5.92822 28.1388 5.97293 28.1836 6.01763C28.3233 6.1571 28.4599 6.29706 28.5876 6.44767C28.6251 6.48878 28.6628 6.5298 28.7006 6.57067C28.7941 6.67334 28.8836 6.77832 28.9708 6.88643C29.0124 6.93791 29.0542 6.98906 29.0964 7.04001C29.4401 7.45605 29.7509 7.89571 30.0473 8.34634C30.0711 8.38256 30.0711 8.38256 30.0954 8.41951C30.4298 8.93335 30.7299 9.46691 30.9994 10.0175C31.0204 10.0598 31.042 10.1017 31.0638 10.1435C31.2019 10.4098 31.3167 10.6854 31.4315 10.9623C31.4567 11.0229 31.4823 11.0834 31.508 11.1438C31.5969 11.3531 31.6718 11.5649 31.7416 11.7812C31.7641 11.8497 31.7876 11.9179 31.8111 11.986C31.9282 12.3266 32.0277 12.6684 32.1139 13.0181C32.1319 13.0904 32.1505 13.1625 32.1694 13.2347C32.6651 15.1413 32.7243 17.1669 32.4569 19.1132C32.4522 19.1489 32.4522 19.1489 32.4473 19.1853C32.3993 19.5428 32.3241 19.895 32.2498 20.2478C32.2425 20.2829 32.2425 20.2829 32.235 20.3187C32.1742 20.6081 32.1045 20.8916 32.0167 21.174C32.0057 21.2111 31.9948 21.2483 31.9841 21.2855C31.9203 21.5038 31.8554 21.7217 31.785 21.9381C31.7797 21.9543 31.7744 21.9706 31.7689 21.9874C31.593 22.522 31.3749 23.0493 31.1362 23.5589C31.1251 23.5827 31.114 23.6066 31.1026 23.6312C30.8332 24.2067 30.5361 24.7641 30.1863 25.2955C30.172 25.3172 30.1578 25.339 30.1431 25.3614C29.8931 25.7424 29.6378 26.1207 29.3522 26.4763C29.3302 26.5039 29.3302 26.5039 29.3078 26.532C29.2765 26.5712 29.245 26.6105 29.2135 26.6496C29.1837 26.6869 29.154 26.7243 29.1245 26.7618C28.9241 27.016 28.7098 27.2588 28.4878 27.4943C28.4263 27.5589 28.4263 27.5589 28.3791 27.6341C28.3638 27.6341 28.3485 27.6341 28.3327 27.6341C28.3278 27.6466 28.3228 27.6591 28.3177 27.6719C28.2752 27.7463 28.2172 27.802 28.1566 27.8617C28.1373 27.881 28.1373 27.881 28.1176 27.9007C28.0904 27.9278 28.0631 27.9549 28.0357 27.982C27.9944 28.0229 27.9533 28.0639 27.9122 28.105C27.7904 28.2263 27.6683 28.3461 27.5374 28.4577C27.4779 28.5085 27.4212 28.562 27.364 28.6152C27.2557 28.7152 27.1443 28.8101 27.0294 28.9024C26.9653 28.9543 26.9026 29.0075 26.8398 29.061C26.6411 29.2266 26.4325 29.3793 26.2243 29.5327C26.2064 29.546 26.1886 29.5592 26.1701 29.5729C25.4951 30.0717 24.7668 30.5265 24.0113 30.894C23.9693 30.9144 23.9273 30.935 23.8854 30.9557C23.5419 31.1248 23.1965 31.2843 22.8412 31.4268C22.7918 31.4466 22.7426 31.4667 22.6934 31.487C22.4835 31.5727 22.2713 31.6479 22.056 31.7189C22.0014 31.7369 21.9469 31.7551 21.8924 31.7733C21.7246 31.829 21.5572 31.8825 21.3861 31.9273C21.3219 31.9445 21.2595 31.966 21.1966 31.9871C20.1712 32.2934 19.1068 32.4644 18.0404 32.5367C17.9867 32.5404 17.9331 32.5446 17.8796 32.5494C17.5847 32.575 17.2885 32.5716 16.9928 32.5718C16.963 32.5718 16.9332 32.5718 16.9024 32.5718C16.3921 32.5716 15.8884 32.5507 15.381 32.4965C15.3473 32.493 15.3136 32.4895 15.2799 32.486C14.105 32.3622 12.9155 32.1219 11.8058 31.709C11.7323 31.682 11.6585 31.6561 11.5847 31.6301C11.1717 31.4836 10.7736 31.316 10.3764 31.1304C10.3514 31.1188 10.3263 31.1072 10.3005 31.0952C9.5871 30.7638 8.8985 30.3822 8.24914 29.9377C8.19622 29.9016 8.143 29.866 8.08973 29.8305C7.84823 29.6685 7.6168 29.4968 7.38913 29.316C7.34417 29.2804 7.29897 29.2451 7.25364 29.2099C7.00075 29.0137 6.75624 28.8097 6.52253 28.5909C6.45905 28.5315 6.3947 28.4735 6.32876 28.4169C6.23006 28.3307 6.1369 28.2399 6.0444 28.1472C6.02756 28.1304 6.01072 28.1136 5.99337 28.0963C5.95805 28.061 5.92275 28.0257 5.88748 27.9903C5.83394 27.9367 5.78027 27.8832 5.72659 27.8297C5.69205 27.7951 5.65753 27.7606 5.62301 27.7261C5.60719 27.7103 5.59138 27.6945 5.57509 27.6783C5.48429 27.5871 5.39757 27.4936 5.31355 27.3961C5.26928 27.3447 5.22356 27.2948 5.17781 27.2448C5.0682 27.1232 4.9647 26.9975 4.86213 26.87C4.84041 26.8432 4.81869 26.8164 4.79696 26.7897C4.41109 26.3127 4.05357 25.8148 3.72682 25.2955C3.71678 25.2796 3.70674 25.2637 3.69639 25.2473C3.01753 24.1681 2.48512 23.0181 2.07851 21.8116C2.05919 21.7545 2.03949 21.6975 2.01971 21.6405C1.9541 21.45 1.89719 21.2599 1.85137 21.0636C1.83148 20.9801 1.8072 20.8981 1.78286 20.8158C1.73048 20.634 1.69163 20.4505 1.65461 20.2651C1.64757 20.2302 1.64054 20.1953 1.63349 20.1604C1.62289 20.1077 1.61231 20.055 1.6018 20.0023C1.58157 19.9009 1.56066 19.7996 1.53912 19.6984C1.45797 19.3097 1.41264 18.9192 1.37407 18.5245C1.36741 18.4565 1.36037 18.3887 1.35284 18.3208C1.1309 16.3167 1.38456 14.2153 2.68854 10.452C2.69617 10.4351 2.7038 10.4183 2.71166 10.401C2.82525 10.1512 2.94547 9.90672 3.07686 9.66571C3.10803 9.60709 3.13669 9.54744 3.16534 9.48757C3.55451 8.68005 4.10363 7.89664 4.67415 7.20715C4.73146 7.13776 4.78677 7.06711 4.8415 6.99567C4.9806 6.81454 5.13391 6.64946 5.29122 6.48408C5.33223 6.44054 5.37185 6.39596 5.41095 6.35071C5.58162 6.15362 5.7598 5.96512 5.94385 5.78052C5.96008 5.7642 5.97631 5.74788 5.99303 5.73106C6.08493 5.63948 6.17919 5.55218 6.27747 5.46749C6.3466 5.40726 6.41293 5.34414 6.47964 5.28126C6.59529 5.17311 6.71342 5.07006 6.83714 4.97111C6.89472 4.92457 6.95104 4.87682 7.00712 4.8285C7.18905 4.67212 7.37938 4.52854 7.57295 4.38691C7.58996 4.37442 7.60698 4.36193 7.62451 4.34906C7.84386 4.18831 8.06542 4.03185 8.29322 3.88328C8.33985 3.85285 8.38634 3.82222 8.43284 3.79159C10.0833 2.70914 11.978 1.92358 13.9214 1.56206C13.9658 1.55373 13.9658 1.55373 14.0112 1.54524C14.5196 1.45083 15.0288 1.38276 15.5432 1.33051C15.5611 1.3286 15.5789 1.32669 15.5974 1.32472C16.0362 1.27872 16.4782 1.27949 16.9189 1.27986Z" fill="#0189D9"/>
<path d="M18.3569 9.71545C18.3951 9.74968 18.433 9.78424 18.4705 9.81919C18.5175 9.86278 18.5657 9.90406 18.6147 9.94527C19.3027 10.5491 19.7262 11.4802 19.8876 12.3664C19.8928 12.3943 19.898 12.4222 19.9034 12.451C20.0402 13.3332 19.8802 14.2533 19.4937 15.0523C19.4859 15.0684 19.4781 15.0846 19.4701 15.1012C19.0551 15.9448 18.3586 16.6383 17.5243 17.0667C17.5091 17.0747 17.4938 17.0827 17.4781 17.0909C17.2031 17.2331 16.9175 17.3276 16.6207 17.4141C16.5955 17.4217 16.5703 17.4293 16.5444 17.4371C15.9635 17.5988 15.3127 17.6084 14.7234 17.493C14.6769 17.484 14.6303 17.4761 14.5837 17.4683C13.517 17.2796 12.522 16.5947 11.8941 15.7238C11.8844 15.7103 11.8746 15.6968 11.8646 15.683C11.5925 15.3024 11.3981 14.8913 11.2454 14.4503C11.2359 14.4236 11.2264 14.397 11.2166 14.3695C10.9939 13.677 10.9615 12.7918 11.1527 12.0885C11.1588 12.0652 11.1649 12.0419 11.1712 12.0179C11.3124 11.4883 11.5316 11.008 11.8478 10.5603C11.8568 10.5474 11.8658 10.5345 11.8751 10.5212C11.9968 10.3484 12.1333 10.1907 12.2792 10.0381C12.3098 10.0061 12.34 9.97359 12.3702 9.94111C12.629 9.67069 12.9353 9.44692 13.2611 9.26366C13.2772 9.25457 13.2932 9.24547 13.3098 9.2361C13.8466 8.93447 14.4126 8.76412 15.022 8.6848C15.0381 8.68257 15.0543 8.68033 15.0709 8.67803C16.2387 8.52961 17.4715 8.95792 18.3569 9.71545Z" fill="#FEFEFE"/>
<path d="M14.0783 18.3344C15.0895 18.6821 16.2616 18.6792 17.26 18.2766C17.4196 18.2194 17.5203 18.256 17.6667 18.3243C17.6847 18.3325 17.7026 18.3407 17.7211 18.3492C18.2228 18.5819 18.6636 18.862 19.1017 19.197C19.0692 19.2866 19.0266 19.3604 18.9743 19.4401C18.7629 19.7747 18.6116 20.1384 18.4993 20.5168C18.4862 20.5585 18.4862 20.5585 18.4728 20.6011C18.2697 21.2906 18.2508 22.1359 18.4298 22.8322C18.4347 22.8515 18.4395 22.8708 18.4445 22.8907C18.6707 23.7674 19.1513 24.6307 19.8579 25.2123C19.8736 25.2262 19.8736 25.2262 19.8895 25.2403C19.8895 25.2479 19.8895 25.2556 19.8895 25.2634C16.1812 25.2634 12.473 25.2634 8.65234 25.2634C8.67847 25.0024 8.67847 25.0024 8.70085 24.9113C8.70597 24.8905 8.71108 24.8696 8.71635 24.8481C8.72199 24.8262 8.72763 24.8042 8.73344 24.7815C8.74252 24.7458 8.74252 24.7458 8.75179 24.7094C8.94206 23.9779 9.19178 23.2632 9.50961 22.5775C9.52028 22.5544 9.53095 22.5312 9.54195 22.5074C9.77845 21.9968 10.05 21.5146 10.3669 21.0493C10.3791 21.0312 10.3914 21.013 10.404 20.9943C10.8044 20.4109 11.2812 19.8365 11.8266 19.3822C11.8384 19.3721 11.8502 19.3621 11.8624 19.3517C12.2367 19.0336 12.6415 18.7521 13.0777 18.5255C13.0935 18.5172 13.1094 18.5089 13.1257 18.5004C13.7041 18.2005 13.7041 18.2005 14.0783 18.3344Z" fill="#FEFEFE"/>
<path d="M20.2852 21.0956C21.8984 21.0956 23.5117 21.0956 25.1739 21.0956C25.1739 21.5846 25.1739 22.0737 25.1739 22.5775C23.5606 22.5775 21.9473 22.5775 20.2852 22.5775C20.2852 22.0885 20.2852 21.5995 20.2852 21.0956Z" fill="#FDFDFE"/>
<path d="M18.4062 17.5993C18.4368 17.5993 18.4674 17.5993 18.4989 17.5993C18.4989 17.6146 18.4989 17.6299 18.4989 17.6456C18.5142 17.6456 18.5295 17.6456 18.5453 17.6456C18.5453 17.6685 18.5453 17.6915 18.5453 17.7151C18.4994 17.738 18.4994 17.738 18.4526 17.7614C18.4187 17.7001 18.4062 17.6712 18.4062 17.5993Z" fill="#046197"/>
</svg>
